<svg width="12" height="12" viewBox="0 0 12 12" fill="none" xmlns="http://www.w3.org/2000/svg">
<g clip-path="url(#clip0_17_1179)">
<path d="M2.27494 3.66072L5.59073 5.46305C5.70214 5.52344 5.84627 5.55207 5.99128 5.55207C6.13629 5.55207 6.28042 5.52344 6.39183 5.46305L9.70762 3.66072C9.92381 3.54308 10.1281 3.08545 9.73149 3.08545H2.25151C1.85494 3.08545 2.0592 3.54308 2.27494 3.66072ZM9.80798 4.64621L6.39183 6.44764C6.24151 6.52726 6.13629 6.53666 5.99128 6.53666C5.84627 6.53666 5.74105 6.52726 5.59073 6.44764C5.44042 6.36801 2.4372 4.77504 2.19183 4.64576C2.01941 4.55451 2.02118 4.66142 2.02118 4.74373V8.00616C2.02118 8.19404 2.27141 8.4535 2.46328 8.4535H9.53696C9.72884 8.4535 9.97907 8.19404 9.97907 8.00616V4.74418C9.97907 4.66187 9.98084 4.55495 9.80798 4.64621Z" fill="#242732"/>
</g>
<defs>
<clipPath id="clip0_17_1179">
<rect x="2" y="3" width="8" height="5.53846" rx="2" fill="white"/>
</clipPath>
</defs>
</svg>
